<mxfile host="Electron" modified="2023-05-11T15:23:22.986Z" agent="Mozilla/5.0 (Windows NT 10.0; Win64; x64) AppleWebKit/537.36 (KHTML, like Gecko) draw.io/21.2.8 Chrome/112.0.5615.165 Electron/24.2.0 Safari/537.36" etag="D1bMaNkm2bzAS_HVxQE7" version="21.2.8" type="device">
  <diagram name="Page-1" id="d9b1e647-80fa-b4a2-5024-87a742678bcc">
    <mxGraphModel dx="984" dy="1140" grid="0" gridSize="10" guides="1" tooltips="1" connect="1" arrows="1" fold="1" page="1" pageScale="1" pageWidth="850" pageHeight="1100" background="none" math="0" shadow="0">
      <root>
        <mxCell id="0" />
        <mxCell id="1" parent="0" />
        <mxCell id="gkRhwmB4x-SXSZlbIXMZ-15" value="" style="edgeStyle=orthogonalEdgeStyle;rounded=0;orthogonalLoop=1;jettySize=auto;html=1;fontSize=16;entryX=0.5;entryY=0;entryDx=0;entryDy=0;exitX=0.5;exitY=1;exitDx=0;exitDy=0;" parent="1" source="YtPCgazLN_XUSBiv_7Ei-8" target="gkRhwmB4x-SXSZlbIXMZ-17" edge="1">
          <mxGeometry relative="1" as="geometry">
            <mxPoint x="450" y="1448" as="targetPoint" />
            <mxPoint x="450" y="1358" as="sourcePoint" />
          </mxGeometry>
        </mxCell>
        <mxCell id="gkRhwmB4x-SXSZlbIXMZ-20" value="" style="edgeStyle=orthogonalEdgeStyle;rounded=0;orthogonalLoop=1;jettySize=auto;html=1;fontSize=12;" parent="1" source="gkRhwmB4x-SXSZlbIXMZ-17" target="gkRhwmB4x-SXSZlbIXMZ-19" edge="1">
          <mxGeometry relative="1" as="geometry" />
        </mxCell>
        <mxCell id="gkRhwmB4x-SXSZlbIXMZ-24" value="" style="edgeStyle=orthogonalEdgeStyle;rounded=0;orthogonalLoop=1;jettySize=auto;html=1;fontSize=12;" parent="1" source="gkRhwmB4x-SXSZlbIXMZ-17" target="gkRhwmB4x-SXSZlbIXMZ-23" edge="1">
          <mxGeometry relative="1" as="geometry" />
        </mxCell>
        <mxCell id="gkRhwmB4x-SXSZlbIXMZ-29" value="" style="edgeStyle=orthogonalEdgeStyle;rounded=0;orthogonalLoop=1;jettySize=auto;html=1;fontSize=12;" parent="1" source="gkRhwmB4x-SXSZlbIXMZ-17" target="gkRhwmB4x-SXSZlbIXMZ-28" edge="1">
          <mxGeometry relative="1" as="geometry" />
        </mxCell>
        <mxCell id="gkRhwmB4x-SXSZlbIXMZ-17" value="Home" style="ellipse;whiteSpace=wrap;html=1;aspect=fixed;fontSize=16;fillColor=#dae8fc;strokeColor=#6c8ebf;" parent="1" vertex="1">
          <mxGeometry x="410" y="1458" width="80" height="80" as="geometry" />
        </mxCell>
        <mxCell id="gkRhwmB4x-SXSZlbIXMZ-18" value="logo=white" style="text;html=1;align=center;verticalAlign=middle;resizable=0;points=[];autosize=1;strokeColor=none;fillColor=none;fontSize=12;rotation=-45;" parent="1" vertex="1">
          <mxGeometry x="459" y="1425" width="80" height="30" as="geometry" />
        </mxCell>
        <mxCell id="gkRhwmB4x-SXSZlbIXMZ-21" style="edgeStyle=orthogonalEdgeStyle;rounded=0;orthogonalLoop=1;jettySize=auto;html=1;entryX=0.993;entryY=0.696;entryDx=0;entryDy=0;fontSize=12;exitX=0.013;exitY=0.704;exitDx=0;exitDy=0;exitPerimeter=0;entryPerimeter=0;" parent="1" source="gkRhwmB4x-SXSZlbIXMZ-19" target="gkRhwmB4x-SXSZlbIXMZ-17" edge="1">
          <mxGeometry relative="1" as="geometry" />
        </mxCell>
        <mxCell id="gkRhwmB4x-SXSZlbIXMZ-19" value="mute" style="ellipse;whiteSpace=wrap;html=1;fontSize=16;fillColor=#dae8fc;strokeColor=#6c8ebf;" parent="1" vertex="1">
          <mxGeometry x="625" y="1458" width="80" height="80" as="geometry" />
        </mxCell>
        <mxCell id="gkRhwmB4x-SXSZlbIXMZ-22" value="&lt;span&gt;click&lt;/span&gt;" style="text;html=1;align=center;verticalAlign=middle;resizable=0;points=[];autosize=1;strokeColor=none;fillColor=none;fontSize=12;fontStyle=0" parent="1" vertex="1">
          <mxGeometry x="529" y="1474" width="50" height="30" as="geometry" />
        </mxCell>
        <mxCell id="gkRhwmB4x-SXSZlbIXMZ-25" style="edgeStyle=orthogonalEdgeStyle;rounded=0;orthogonalLoop=1;jettySize=auto;html=1;entryX=0.013;entryY=0.688;entryDx=0;entryDy=0;fontSize=12;entryPerimeter=0;" parent="1" source="gkRhwmB4x-SXSZlbIXMZ-23" target="gkRhwmB4x-SXSZlbIXMZ-17" edge="1">
          <mxGeometry relative="1" as="geometry">
            <Array as="points">
              <mxPoint x="325" y="1513" />
              <mxPoint x="325" y="1513" />
            </Array>
          </mxGeometry>
        </mxCell>
        <mxCell id="gkRhwmB4x-SXSZlbIXMZ-23" value="Vol: +/-" style="ellipse;whiteSpace=wrap;html=1;fontSize=16;fillColor=#dae8fc;strokeColor=#6c8ebf;" parent="1" vertex="1">
          <mxGeometry x="215" y="1458" width="80" height="80" as="geometry" />
        </mxCell>
        <mxCell id="gkRhwmB4x-SXSZlbIXMZ-26" value="&lt;span&gt;Spin&lt;/span&gt;" style="text;html=1;align=center;verticalAlign=middle;resizable=0;points=[];autosize=1;strokeColor=none;fillColor=none;fontSize=12;fontStyle=0" parent="1" vertex="1">
          <mxGeometry x="325" y="1474" width="50" height="30" as="geometry" />
        </mxCell>
        <mxCell id="gkRhwmB4x-SXSZlbIXMZ-27" value="from fpga: AES P441" style="text;html=1;align=center;verticalAlign=middle;resizable=0;points=[];autosize=1;strokeColor=none;fillColor=none;fontSize=12;rotation=-40;" parent="1" vertex="1">
          <mxGeometry x="462" y="1431" width="140" height="30" as="geometry" />
        </mxCell>
        <mxCell id="gkRhwmB4x-SXSZlbIXMZ-32" value="" style="edgeStyle=orthogonalEdgeStyle;rounded=0;orthogonalLoop=1;jettySize=auto;html=1;fontSize=12;" parent="1" edge="1">
          <mxGeometry relative="1" as="geometry">
            <mxPoint x="443" y="1728" as="sourcePoint" />
            <mxPoint x="443" y="1808" as="targetPoint" />
          </mxGeometry>
        </mxCell>
        <mxCell id="gkRhwmB4x-SXSZlbIXMZ-46" style="edgeStyle=none;rounded=0;orthogonalLoop=1;jettySize=auto;html=1;fontSize=12;exitX=0.608;exitY=-0.02;exitDx=0;exitDy=0;exitPerimeter=0;" parent="1" source="gkRhwmB4x-SXSZlbIXMZ-28" edge="1">
          <mxGeometry relative="1" as="geometry">
            <mxPoint x="459" y="1538" as="targetPoint" />
          </mxGeometry>
        </mxCell>
        <mxCell id="gkRhwmB4x-SXSZlbIXMZ-56" style="edgeStyle=orthogonalEdgeStyle;curved=1;rounded=0;orthogonalLoop=1;jettySize=auto;html=1;fontSize=12;" parent="1" source="gkRhwmB4x-SXSZlbIXMZ-28" edge="1">
          <mxGeometry relative="1" as="geometry">
            <mxPoint x="415" y="1538" as="targetPoint" />
            <Array as="points">
              <mxPoint x="385" y="1688" />
              <mxPoint x="385" y="1538" />
            </Array>
          </mxGeometry>
        </mxCell>
        <mxCell id="gkRhwmB4x-SXSZlbIXMZ-28" value="menu" style="ellipse;whiteSpace=wrap;html=1;fontSize=16;fillColor=#dae8fc;strokeColor=#6c8ebf;" parent="1" vertex="1">
          <mxGeometry x="410" y="1648" width="80" height="80" as="geometry" />
        </mxCell>
        <mxCell id="gkRhwmB4x-SXSZlbIXMZ-30" value="double click" style="text;html=1;align=center;verticalAlign=middle;resizable=0;points=[];autosize=1;strokeColor=none;fillColor=none;fontSize=12;rotation=-90;fontStyle=1" parent="1" vertex="1">
          <mxGeometry x="395" y="1568" width="90" height="30" as="geometry" />
        </mxCell>
        <mxCell id="gkRhwmB4x-SXSZlbIXMZ-36" style="rounded=0;orthogonalLoop=1;jettySize=auto;html=1;entryX=0.379;entryY=1;entryDx=0;entryDy=0;fontSize=12;exitX=0.385;exitY=-0.009;exitDx=0;exitDy=0;exitPerimeter=0;entryPerimeter=0;" parent="1" edge="1">
          <mxGeometry x="-0.2646" y="-21" relative="1" as="geometry">
            <mxPoint x="453.79999999999995" y="1807.28" as="sourcePoint" />
            <mxPoint x="453.31999999999994" y="1728" as="targetPoint" />
            <mxPoint as="offset" />
          </mxGeometry>
        </mxCell>
        <mxCell id="gkRhwmB4x-SXSZlbIXMZ-43" value="" style="edgeStyle=orthogonalEdgeStyle;curved=1;rounded=0;orthogonalLoop=1;jettySize=auto;html=1;fontSize=12;" parent="1" source="gkRhwmB4x-SXSZlbIXMZ-31" target="gkRhwmB4x-SXSZlbIXMZ-42" edge="1">
          <mxGeometry relative="1" as="geometry" />
        </mxCell>
        <mxCell id="gkRhwmB4x-SXSZlbIXMZ-55" style="edgeStyle=orthogonalEdgeStyle;curved=1;rounded=0;orthogonalLoop=1;jettySize=auto;html=1;fontSize=12;" parent="1" source="gkRhwmB4x-SXSZlbIXMZ-31" edge="1">
          <mxGeometry relative="1" as="geometry">
            <mxPoint x="415" y="1538" as="targetPoint" />
            <Array as="points">
              <mxPoint x="335" y="1848" />
              <mxPoint x="335" y="1538" />
            </Array>
          </mxGeometry>
        </mxCell>
        <mxCell id="gkRhwmB4x-SXSZlbIXMZ-31" value="cmd" style="ellipse;whiteSpace=wrap;html=1;fontSize=16;fillColor=#dae8fc;strokeColor=#6c8ebf;" parent="1" vertex="1">
          <mxGeometry x="410" y="1808" width="80" height="80" as="geometry" />
        </mxCell>
        <mxCell id="gkRhwmB4x-SXSZlbIXMZ-33" value="Spin" style="text;html=1;align=center;verticalAlign=middle;resizable=0;points=[];autosize=1;strokeColor=none;fillColor=none;fontSize=12;" parent="1" vertex="1">
          <mxGeometry x="505" y="1668" width="50" height="30" as="geometry" />
        </mxCell>
        <mxCell id="gkRhwmB4x-SXSZlbIXMZ-34" style="edgeStyle=orthogonalEdgeStyle;rounded=0;orthogonalLoop=1;jettySize=auto;html=1;exitX=1;exitY=1;exitDx=0;exitDy=0;fontSize=12;curved=1;entryX=1;entryY=0;entryDx=0;entryDy=0;" parent="1" source="gkRhwmB4x-SXSZlbIXMZ-28" target="gkRhwmB4x-SXSZlbIXMZ-28" edge="1">
          <mxGeometry relative="1" as="geometry">
            <mxPoint x="555" y="1648" as="targetPoint" />
            <Array as="points">
              <mxPoint x="515" y="1716" />
              <mxPoint x="515" y="1638" />
              <mxPoint x="478" y="1638" />
            </Array>
          </mxGeometry>
        </mxCell>
        <mxCell id="gkRhwmB4x-SXSZlbIXMZ-37" style="edgeStyle=orthogonalEdgeStyle;rounded=0;orthogonalLoop=1;jettySize=auto;html=1;exitX=1;exitY=1;exitDx=0;exitDy=0;fontSize=12;curved=1;entryX=1;entryY=0;entryDx=0;entryDy=0;" parent="1" edge="1">
          <mxGeometry relative="1" as="geometry">
            <mxPoint x="480.00427124746193" y="1876.284271247462" as="sourcePoint" />
            <mxPoint x="480.00427124746193" y="1819.715728752538" as="targetPoint" />
            <Array as="points">
              <mxPoint x="516.72" y="1876" />
              <mxPoint x="516.72" y="1798" />
              <mxPoint x="479.72" y="1798" />
            </Array>
          </mxGeometry>
        </mxCell>
        <mxCell id="gkRhwmB4x-SXSZlbIXMZ-38" value="Spin" style="text;html=1;align=center;verticalAlign=middle;resizable=0;points=[];autosize=1;strokeColor=none;fillColor=none;fontSize=12;" parent="1" vertex="1">
          <mxGeometry x="505" y="1818" width="50" height="30" as="geometry" />
        </mxCell>
        <mxCell id="gkRhwmB4x-SXSZlbIXMZ-39" value="timeout = 2s&amp;nbsp;" style="text;html=1;align=center;verticalAlign=middle;resizable=0;points=[];autosize=1;strokeColor=none;fillColor=none;fontSize=12;" parent="1" vertex="1">
          <mxGeometry x="305" y="1508" width="90" height="30" as="geometry" />
        </mxCell>
        <mxCell id="gkRhwmB4x-SXSZlbIXMZ-40" value="&lt;span&gt;click&lt;/span&gt;" style="text;html=1;align=center;verticalAlign=middle;resizable=0;points=[];autosize=1;strokeColor=none;fillColor=none;fontSize=12;fontStyle=0" parent="1" vertex="1">
          <mxGeometry x="529" y="1508" width="50" height="30" as="geometry" />
        </mxCell>
        <mxCell id="gkRhwmB4x-SXSZlbIXMZ-52" style="edgeStyle=orthogonalEdgeStyle;rounded=0;orthogonalLoop=1;jettySize=auto;html=1;entryX=0.138;entryY=0.938;entryDx=0;entryDy=0;entryPerimeter=0;fontSize=12;curved=1;" parent="1" source="gkRhwmB4x-SXSZlbIXMZ-42" target="gkRhwmB4x-SXSZlbIXMZ-17" edge="1">
          <mxGeometry relative="1" as="geometry">
            <Array as="points">
              <mxPoint x="285" y="2048" />
              <mxPoint x="285" y="1533" />
            </Array>
          </mxGeometry>
        </mxCell>
        <mxCell id="gkRhwmB4x-SXSZlbIXMZ-42" value="set" style="ellipse;whiteSpace=wrap;html=1;fontSize=16;fillColor=#dae8fc;strokeColor=#6c8ebf;" parent="1" vertex="1">
          <mxGeometry x="410" y="2008" width="80" height="80" as="geometry" />
        </mxCell>
        <mxCell id="gkRhwmB4x-SXSZlbIXMZ-44" value="double click" style="text;html=1;align=center;verticalAlign=middle;resizable=0;points=[];autosize=1;strokeColor=none;fillColor=none;fontSize=12;rotation=-90;fontStyle=1" parent="1" vertex="1">
          <mxGeometry x="396" y="1938" width="90" height="30" as="geometry" />
        </mxCell>
        <mxCell id="gkRhwmB4x-SXSZlbIXMZ-45" value="click" style="text;html=1;align=center;verticalAlign=middle;resizable=0;points=[];autosize=1;strokeColor=none;fillColor=none;fontSize=12;rotation=-90;" parent="1" vertex="1">
          <mxGeometry x="440" y="1755" width="50" height="30" as="geometry" />
        </mxCell>
        <mxCell id="gkRhwmB4x-SXSZlbIXMZ-47" value="timeout=15s" style="text;html=1;align=center;verticalAlign=middle;resizable=0;points=[];autosize=1;strokeColor=none;fillColor=none;fontSize=12;rotation=-90;" parent="1" vertex="1">
          <mxGeometry x="425" y="1578" width="90" height="30" as="geometry" />
        </mxCell>
        <mxCell id="gkRhwmB4x-SXSZlbIXMZ-48" style="edgeStyle=orthogonalEdgeStyle;rounded=0;orthogonalLoop=1;jettySize=auto;html=1;exitX=1;exitY=1;exitDx=0;exitDy=0;fontSize=12;curved=1;entryX=1;entryY=0;entryDx=0;entryDy=0;" parent="1" edge="1">
          <mxGeometry relative="1" as="geometry">
            <mxPoint x="480.00427124746216" y="2077.284271247462" as="sourcePoint" />
            <mxPoint x="480.00427124746216" y="2020.715728752538" as="targetPoint" />
            <Array as="points">
              <mxPoint x="516.72" y="2077" />
              <mxPoint x="516.72" y="1999" />
              <mxPoint x="479.72" y="1999" />
            </Array>
          </mxGeometry>
        </mxCell>
        <mxCell id="gkRhwmB4x-SXSZlbIXMZ-49" value="Spin" style="text;html=1;align=center;verticalAlign=middle;resizable=0;points=[];autosize=1;strokeColor=none;fillColor=none;fontSize=12;" parent="1" vertex="1">
          <mxGeometry x="515" y="2028" width="50" height="30" as="geometry" />
        </mxCell>
        <mxCell id="gkRhwmB4x-SXSZlbIXMZ-50" style="rounded=0;orthogonalLoop=1;jettySize=auto;html=1;entryX=0.638;entryY=0.996;entryDx=0;entryDy=0;fontSize=12;exitX=0.385;exitY=-0.009;exitDx=0;exitDy=0;exitPerimeter=0;entryPerimeter=0;" parent="1" target="gkRhwmB4x-SXSZlbIXMZ-31" edge="1">
          <mxGeometry relative="1" as="geometry">
            <mxPoint x="460.14" y="2008" as="sourcePoint" />
            <mxPoint x="459.6600000000002" y="1928.7199999999998" as="targetPoint" />
          </mxGeometry>
        </mxCell>
        <mxCell id="gkRhwmB4x-SXSZlbIXMZ-51" value="click" style="text;html=1;align=center;verticalAlign=middle;resizable=0;points=[];autosize=1;strokeColor=none;fillColor=none;fontSize=12;rotation=-90;" parent="1" vertex="1">
          <mxGeometry x="445" y="1938" width="50" height="30" as="geometry" />
        </mxCell>
        <mxCell id="gkRhwmB4x-SXSZlbIXMZ-57" value="long click/timeout" style="text;html=1;align=center;verticalAlign=middle;resizable=0;points=[];autosize=1;strokeColor=none;fillColor=none;fontSize=12;rotation=-90;fontStyle=1" parent="1" vertex="1">
          <mxGeometry x="205" y="1798" width="130" height="30" as="geometry" />
        </mxCell>
        <mxCell id="gkRhwmB4x-SXSZlbIXMZ-58" value="long click/timeout" style="text;html=1;align=center;verticalAlign=middle;resizable=0;points=[];autosize=1;strokeColor=none;fillColor=none;fontSize=12;rotation=-90;fontStyle=1" parent="1" vertex="1">
          <mxGeometry x="260" y="1725" width="130" height="30" as="geometry" />
        </mxCell>
        <mxCell id="gkRhwmB4x-SXSZlbIXMZ-59" value="long click/timeout" style="text;html=1;align=center;verticalAlign=middle;resizable=0;points=[];autosize=1;strokeColor=none;fillColor=none;fontSize=12;rotation=-90;fontStyle=1" parent="1" vertex="1">
          <mxGeometry x="305" y="1628" width="130" height="30" as="geometry" />
        </mxCell>
        <mxCell id="gkRhwmB4x-SXSZlbIXMZ-60" value="double click" style="text;html=1;align=center;verticalAlign=middle;resizable=0;points=[];autosize=1;strokeColor=none;fillColor=none;fontSize=12;rotation=-90;fontStyle=1" parent="1" vertex="1">
          <mxGeometry x="390" y="1748" width="90" height="30" as="geometry" />
        </mxCell>
        <mxCell id="YtPCgazLN_XUSBiv_7Ei-12" style="edgeStyle=orthogonalEdgeStyle;rounded=0;orthogonalLoop=1;jettySize=auto;html=1;entryX=0.5;entryY=1;entryDx=0;entryDy=0;" edge="1" parent="1">
          <mxGeometry relative="1" as="geometry">
            <mxPoint x="457" y="1273" as="sourcePoint" />
            <mxPoint x="457" y="1125" as="targetPoint" />
          </mxGeometry>
        </mxCell>
        <mxCell id="YtPCgazLN_XUSBiv_7Ei-8" value="Poweron" style="ellipse;whiteSpace=wrap;html=1;aspect=fixed;fontSize=16;fillColor=#dae8fc;strokeColor=#6c8ebf;" vertex="1" parent="1">
          <mxGeometry x="410" y="1273" width="80" height="80" as="geometry" />
        </mxCell>
        <mxCell id="YtPCgazLN_XUSBiv_7Ei-10" style="edgeStyle=orthogonalEdgeStyle;rounded=0;orthogonalLoop=1;jettySize=auto;html=1;entryX=0.5;entryY=0;entryDx=0;entryDy=0;" edge="1" parent="1" source="YtPCgazLN_XUSBiv_7Ei-9" target="YtPCgazLN_XUSBiv_7Ei-8">
          <mxGeometry relative="1" as="geometry" />
        </mxCell>
        <mxCell id="YtPCgazLN_XUSBiv_7Ei-9" value="Poweroff" style="ellipse;whiteSpace=wrap;html=1;aspect=fixed;fontSize=16;fillColor=#dae8fc;strokeColor=#6c8ebf;" vertex="1" parent="1">
          <mxGeometry x="410" y="1045" width="80" height="80" as="geometry" />
        </mxCell>
        <mxCell id="YtPCgazLN_XUSBiv_7Ei-11" value="PowerKey L_CLICK" style="text;html=1;align=center;verticalAlign=middle;resizable=0;points=[];autosize=1;strokeColor=none;fillColor=none;fontSize=12;rotation=-90;" vertex="1" parent="1">
          <mxGeometry x="375" y="1189" width="125" height="26" as="geometry" />
        </mxCell>
        <mxCell id="YtPCgazLN_XUSBiv_7Ei-13" value="PowerKey L_CLICK" style="text;html=1;align=center;verticalAlign=middle;resizable=0;points=[];autosize=1;strokeColor=none;fillColor=none;fontSize=12;rotation=-90;" vertex="1" parent="1">
          <mxGeometry x="410" y="1189" width="125" height="26" as="geometry" />
        </mxCell>
        <mxCell id="YtPCgazLN_XUSBiv_7Ei-14" style="edgeStyle=orthogonalEdgeStyle;curved=1;rounded=0;orthogonalLoop=1;jettySize=auto;html=1;fontSize=12;entryX=-0.014;entryY=0.601;entryDx=0;entryDy=0;entryPerimeter=0;" edge="1" parent="1" target="YtPCgazLN_XUSBiv_7Ei-9">
          <mxGeometry relative="1" as="geometry">
            <mxPoint x="417.98" y="1333" as="targetPoint" />
            <Array as="points">
              <mxPoint x="346" y="1483" />
              <mxPoint x="346" y="1093" />
            </Array>
            <mxPoint x="412.98" y="1483" as="sourcePoint" />
          </mxGeometry>
        </mxCell>
        <mxCell id="YtPCgazLN_XUSBiv_7Ei-15" value="PowerKey L_CLICK" style="text;html=1;align=center;verticalAlign=middle;resizable=0;points=[];autosize=1;strokeColor=none;fillColor=none;fontSize=12;rotation=-90;" vertex="1" parent="1">
          <mxGeometry x="270" y="1300" width="125" height="26" as="geometry" />
        </mxCell>
        <mxCell id="YtPCgazLN_XUSBiv_7Ei-16" value="FPGA ready = H" style="text;html=1;align=center;verticalAlign=middle;resizable=0;points=[];autosize=1;strokeColor=none;fillColor=none;fontSize=12;rotation=-90;" vertex="1" parent="1">
          <mxGeometry x="387" y="1392" width="106" height="26" as="geometry" />
        </mxCell>
      </root>
    </mxGraphModel>
  </diagram>
</mxfile>
